<svg xmlns="http://www.w3.org/2000/svg" viewBox="0 0 20 20"><path d="M10 .4C4.705.4.4 4.707.4 10c0 5.293 4.305 9.6 9.6 9.6 5.293 0 9.6-4.307 9.6-9.6 0-5.293-4.307-9.6-9.6-9.6zm8.188 9.6c0 1.873-.636 3.6-1.696 4.98-.3-.234-.62-.867-.32-1.523.304-.66.383-2.188.313-2.783-.066-.594-.375-2.025-1.214-2.04-.834-.01-1.41-.288-1.91-1.282-1.03-2.068 1.94-2.465.91-3.61-.29-.32-1.784 1.323-2.003-.868-.014-.157.135-.392.336-.636 3.245 1.09 5.59 4.157 5.59 7.762zM8.875 1.893c-.196.382-.713.537-1.027.824-.684.62-.978.533-1.346 1.127-.37.594-1.567 1.45-1.567 1.88s.604.935.906.837c.306-.1 1.1-.09 1.57.07.47.17 3.915.336 2.817 3.248-.348.926-1.873.77-2.28 2.303-.06.225-.27 1.186-.284 1.5C7.64 14.167 8.008 16 7.54 16c-.47 0-1.74-1.64-1.74-1.936 0-.295-.327-1.336-.327-2.23 0-.89-1.52-.875-1.52-2.06 0-1.07.824-1.6.64-2.113-.182-.51-1.628-.528-2.23-.59a8.213 8.213 0 0 1 6.515-5.173zM7.425 17.77c.49-.26.54-.596.987-.613.51-.023.925-.2 1.5-.326.51-.11 1.423-.625 2.226-.69.678-.056 2.015.034 2.375.69a8.16 8.16 0 0 1-7.09.944z"/></svg>